<svg version="1.2" xmlns="http://www.w3.org/2000/svg" viewBox="0 0 1075 56" width="1075" height="56">
	<title>Platinum-svg</title>
	<defs>
		<clipPath clipPathUnits="userSpaceOnUse" id="cp1">
			<path d="m509 3.7h49v48.75h-49z"/>
		</clipPath>
	</defs>
	<style>
		.s0 { fill: #737373 } 
	</style>
	<path id="Layer" class="s0" d="m498.8 33.4v-3.2l-197.4-2.2 197.4-2.1v-3.3l-498.7 5.4z"/>
	<path id="Layer" class="s0" d="m568 22.6v3.3l197.5 2.1-197.5 2.2v3.2l498.8-5.4z"/>
	<g id="Clip-Path: Clip-Path" clip-path="url(#cp1)">
		<g id="Clip-Path">
			<g id="Layer">
				<path id="Layer" class="s0" d="m557.1 25.9c-0.6-0.8-1.2-1.4-2-1.9q-0.7-0.5-1.4-0.9-0.8-0.3-1.6-0.7 0.1-0.4 0.1-0.9c0-1.4-0.8-2.8-2.5-4.1-1.9 4.5-7.7 8.3-15.4 10.4l16.3-16.9-17 16.3c2.2-7.8 5.9-13.5 10.4-15.4-1.2-1.7-2.6-2.5-4.1-2.5q-0.4 0-0.9 0.1-0.3-0.8-0.7-1.6c-0.5-0.9-1-1.8-1.7-2.5-0.6-0.6-1.3-1.1-2-1.4-0.8-0.2-1.6-0.3-2.4 0q-0.5 0.2-1 0.5c-0.7 0.5-1.3 1.2-1.8 1.9q-0.5 0.8-0.9 1.5-0.4 0.8-0.7 1.6-0.5-0.1-1-0.1c-1.4 0-2.8 0.8-4 2.5 4.5 1.9 8.2 7.7 10.4 15.5l-17-16.4 16.3 16.9c-7.8-2.1-13.5-5.9-15.4-10.3-1.7 1.2-2.5 2.6-2.5 4q0 0.5 0.1 1-0.8 0.3-1.6 0.6c-0.9 0.5-1.8 1.1-2.5 1.8-0.6 0.5-1 1.2-1.3 1.9-0.3 0.8-0.3 1.7 0 2.4q0.2 0.5 0.5 1c0.5 0.7 1.1 1.4 1.9 1.9q0.7 0.5 1.5 0.8 0.7 0.4 1.6 0.7-0.2 0.5-0.2 1c0 1.4 0.9 2.8 2.6 4 1.9-4.4 7.6-8.2 15.3-10.3l-16.3 17 17-16.4c-2.2 7.8-5.9 13.5-10.4 15.4 1.2 1.7 2.7 2.5 4.1 2.5q0.4 0 0.9-0.1 0.3 0.8 0.7 1.6 0.4 0.8 0.9 1.5c0.5 0.7 1.1 1.4 1.9 1.9q0.4 0.3 1 0.5c0.7 0.3 1.6 0.3 2.3 0 0.8-0.3 1.4-0.8 2-1.4 0.7-0.7 1.3-1.6 1.7-2.5q0.4-0.7 0.7-1.6 0.5 0.2 1 0.2c1.4 0 2.8-0.9 4-2.6-4.5-1.9-8.2-7.6-10.3-15.3l16.9 16.3-16.4-17c7.8 2.1 13.5 5.9 15.5 10.3 1.6-1.2 2.5-2.6 2.5-4q0-0.5-0.1-1 0.8-0.3 1.5-0.6c1-0.5 1.8-1 2.6-1.8 0.5-0.5 1-1.2 1.3-1.9q0.4-1.2 0-2.4-0.2-0.5-0.5-1z"/>
			</g>
		</g>
	</g>
</svg>